Coordinates
version=1
nRows=5
nColumns=40
inDegrees=yes

Units are S.I. units (second, meters, Newtons, ...)
Angles are in degrees.

endheader
time	pelvis_tilt	pelvis_list	pelvis_rotation	pelvis_tx	pelvis_ty	pelvis_tz	hip_flexion_r	hip_adduction_r	hip_rotation_r	knee_angle_r	knee_angle_r_beta	ankle_angle_r	subtalar_angle_r	mtp_angle_r	hip_flexion_l	hip_adduction_l	hip_rotation_l	knee_angle_l	knee_angle_l_beta	ankle_angle_l	subtalar_angle_l	mtp_angle_l	lumbar_extension	lumbar_bending	lumbar_rotation	arm_flex_r	arm_add_r	arm_rot_r	elbow_flex_r	pro_sup_r	wrist_flex_r	wrist_dev_r	arm_flex_l	arm_add_l	arm_rot_l	elbow_flex_l	pro_sup_l	wrist_flex_l	wrist_dev_l
     16.68750000	     -3.17576400	     -4.81277727	     -2.98802837	      1.01351754	      0.91649716	      0.49174608	     23.81073792	      0.90024473	    -14.97446642	     25.12356906	     25.12356906	      6.84700582	     -2.25521960	     -3.63945410	      8.23628586	    -11.19609952	     -4.98962977	     46.01295276	     46.01295276	     13.48677214	    -17.30089875	     -4.25034190	    -10.63120012	      6.08523774	      3.20445871	    -16.99925866	    -12.64482585	     -2.57365930	     27.89460283	     46.25081486	      0.00000000	      0.00000000	     15.51976093	    -17.61068231	     -9.13297711	    106.03108070	     48.56410544	      0.00000000	      0.00000000
     16.69942857	     -3.17122769	     -5.13664610	     -2.71961578	      1.01283585	      0.91777291	      0.49426772	     22.94372283	      1.33592651	    -15.48020253	     24.63373521	     24.63373521	      7.32736610	     -1.85707727	     -3.65234642	     10.50483106	    -12.04147281	     -4.32855527	     50.09945455	     50.09945455	     12.04452511	    -17.93929514	     -3.59357983	    -10.84241175	      6.40527365	      3.60805891	    -15.55047191	    -12.46659423	     -2.38696658	     28.30311137	     46.23166665	      0.00000000	      0.00000000	     14.31164085	    -16.73094877	     -8.66403295	    105.67827320	     48.52306921	      0.00000000	      0.00000000
     16.71135714	     -3.34367740	     -5.21611768	     -2.38159406	      1.01190193	      0.91883632	      0.49615589	     22.28056036	      1.33359742	    -16.47394976	     24.18953215	     24.18953215	      7.91669117	     -0.48594265	     -3.58187247	     13.29056990	    -12.30751409	     -3.25066899	     54.43624093	     54.43624093	     12.90694346	    -18.01889887	      2.89422598	    -10.73917655	      6.54125036	      3.21698214	    -13.54886960	    -12.53956980	     -1.40600486	     28.41975577	     46.16861268	      0.00000000	      0.00000000	     12.48122686	    -16.42552981	     -8.57880160	    104.70948186	     48.50759385	      0.00000000	      0.00000000
     16.72328571	     -3.43583841	     -5.39733678	     -2.11800337	      1.01086383	      0.91993329	      0.49821116	     21.53733239	      1.62884775	    -16.90065682	     23.66997274	     23.66997274	      8.35515448	     -0.02439254	     -3.51460969	     15.89308515	    -12.80391469	     -2.52741204	     58.22116491	     58.22116491	     13.32549734	    -18.08064723	      7.42692810	    -10.83262498	      6.72912539	      3.52104752	    -11.77212852	    -12.58208846	     -0.32024423	     28.66676150	     46.09142344	      0.00000000	      0.00000000	     11.10584715	    -15.63273313	     -8.08947894	    103.82267145	     48.47594973	      0.00000000	      0.00000000
     16.73521429	     -3.50425202	     -5.56544128	     -1.83032480	      1.00980402	      0.92102932	      0.50012661	     20.72950816	      1.90337579	    -17.38872188	     23.06414498	     23.06414498	      8.67298277	      0.55207025	     -3.59405247	     18.33935793	    -13.35694416	     -2.02831184	     61.32803435	     61.32803435	     12.71862282	    -18.39426898	      8.36166551	    -10.92842549	      6.89550190	      3.71201346	     -9.98682222	    -12.60495863	     -0.09685214	     29.28341600	     46.06442356	      0.00000000	      0.00000000	      9.63807311	    -15.08204091	     -7.46169181	    102.50564828	     48.40944218	      0.00000000	      0.00000000
